<?xml version="1.0" standalone="no"?>
<!DOCTYPE svg PUBLIC "-//W3C//DTD SVG 20010904//EN"
 "http://www.w3.org/TR/2001/REC-SVG-20010904/DTD/svg10.dtd">
<svg version="1.0" xmlns="http://www.w3.org/2000/svg"
 width="556.000000pt" height="512.000000pt" viewBox="0 0 556.000000 512.000000"
 preserveAspectRatio="xMidYMid meet">

<g transform="translate(0.000000,512.000000) scale(0.100000,-0.100000)"
fill="#000000" stroke="none">
<path d="M3290 4526 c-253 -53 -485 -192 -636 -380 -77 -96 -171 -281 -209
-411 -32 -109 -43 -297 -26 -419 30 -210 110 -386 255 -561 116 -140 317 -274
481 -320 33 -9 69 -20 80 -26 79 -37 431 -37 510 0 11 6 47 17 80 26 283 76
570 353 676 653 53 147 64 215 64 377 -1 158 -5 185 -46 324 -55 183 -206 407
-346 513 -131 99 -229 149 -388 199 -92 29 -113 32 -265 35 -113 2 -185 -1
-230 -10z m323 -226 c191 -137 84 -421 -150 -397 -30 3 -68 14 -86 24 -36 22
-100 100 -91 114 3 5 0 9 -5 9 -7 0 -11 24 -11 58 0 79 35 153 91 187 63 41
80 45 146 41 50 -3 70 -10 106 -36z m-651 -289 c86 -33 106 -46 138 -88 30
-40 35 -55 38 -114 5 -82 -8 -126 -51 -166 -97 -93 -215 -99 -307 -16 -55 49
-73 91 -72 168 1 96 49 171 125 195 23 8 46 17 52 22 12 11 48 10 77 -1z
m1172 -16 c220 -76 175 -404 -58 -422 -69 -6 -112 8 -165 53 -68 57 -91 173
-52 260 21 45 83 102 121 110 14 3 32 9 40 14 19 11 53 6 114 -15z m-552 -443
c63 -63 42 -175 -39 -209 -115 -48 -221 67 -166 181 34 73 146 88 205 28z
m-552 -225 c26 -14 57 -43 77 -71 29 -43 33 -56 33 -116 0 -86 -28 -143 -92
-186 -149 -101 -340 3 -340 183 0 69 19 117 61 158 45 42 77 53 152 54 51 1
76 -4 109 -22z m1133 2 c28 -14 55 -39 77 -71 31 -45 34 -56 34 -121 0 -85
-16 -120 -75 -170 -94 -81 -228 -66 -316 33 -42 47 -57 158 -29 223 18 43 67
94 108 112 51 22 149 19 201 -6z m-551 -335 c192 -138 84 -427 -149 -400 -88
10 -130 41 -172 123 -54 108 4 253 121 303 13 5 53 9 90 7 56 -2 74 -7 110
-33z"/>
<path d="M1290 4113 c-50 -6 -185 -51 -255 -86 -264 -132 -447 -395 -474 -682
-19 -191 23 -380 117 -539 95 -161 290 -324 442 -370 30 -10 63 -21 72 -26 70
-39 385 -38 453 1 6 3 33 12 60 19 64 17 187 81 245 128 197 159 313 368 338
607 20 192 -31 394 -141 562 -42 63 -147 175 -207 222 -92 70 -258 141 -380
160 -62 10 -195 12 -270 4z m226 -179 c49 -34 60 -48 80 -108 14 -40 14 -55 5
-87 -14 -46 -62 -104 -104 -126 -39 -20 -115 -20 -153 0 -175 91 -118 347 77
347 44 0 64 -6 95 -26z m-440 -276 c40 -36 74 -103 74 -149 0 -55 -48 -127
-103 -156 -40 -20 -130 -19 -169 4 -105 62 -129 188 -50 275 46 50 61 57 144
57 62 1 70 -2 104 -31z m890 13 c18 -11 45 -36 60 -57 25 -32 29 -47 29 -100
0 -55 -4 -67 -31 -101 -43 -53 -85 -75 -143 -75 -100 0 -181 80 -181 178 0 66
43 134 100 161 41 19 131 16 166 -6z m-470 -348 c45 -49 44 -100 -3 -147 -23
-23 -34 -27 -77 -24 -46 3 -52 6 -78 43 -32 47 -34 66 -11 103 27 42 44 51 96
52 39 0 52 -5 73 -27z m-477 -163 c71 -20 143 -131 126 -192 -28 -102 -91
-158 -177 -158 -81 0 -142 40 -173 113 -20 49 -19 79 6 137 38 88 124 127 218
100z m918 -5 c41 -8 110 -84 119 -131 21 -113 -67 -215 -185 -214 -51 1 -108
33 -145 83 -30 40 -30 153 0 193 40 54 113 89 164 78 8 -1 30 -5 47 -9z m-418
-284 c52 -40 73 -74 78 -124 7 -55 -10 -106 -45 -143 -38 -40 -74 -54 -135
-54 -61 0 -102 21 -143 76 -25 32 -29 47 -29 99 0 52 4 67 28 98 67 88 170
108 246 48z"/>
<path d="M2230 2591 c-63 -64 -137 -131 -165 -149 -27 -17 -55 -36 -62 -42 -7
-5 -15 -10 -17 -10 -3 0 -34 -14 -68 -31 -174 -85 -296 -112 -503 -112 -123 1
-295 23 -320 42 -5 5 -23 11 -40 15 -31 8 -180 80 -253 123 l-42 25 2 -894 3
-895 30 -48 c17 -27 50 -63 74 -80 l43 -30 1546 -5 c1276 -4 1556 -3 1597 8
63 17 144 96 163 159 9 33 12 247 12 917 l0 875 -79 -45 c-43 -24 -83 -44 -88
-44 -4 0 -25 -9 -45 -20 -32 -17 -149 -55 -248 -80 -72 -18 -280 -29 -389 -20
-119 10 -230 27 -246 39 -5 4 -39 16 -74 25 -79 22 -273 121 -348 179 -30 23
-66 49 -78 57 -13 9 -56 48 -96 88 l-73 72 -61 -1 -60 -1 -115 -117z m446
-736 c247 -123 457 -230 468 -238 17 -13 16 -15 -25 -39 -24 -14 -96 -53 -159
-85 -336 -175 -396 -206 -405 -213 -27 -20 -328 -170 -332 -166 -3 3 -8 101
-10 218 -16 754 -16 748 -1 748 8 0 217 -101 464 -225z"/>
<path d="M4760 2291 c-190 -97 -355 -182 -368 -189 l-22 -13 2 -490 3 -490 45
-25 c47 -25 304 -159 553 -288 l147 -76 0 875 c0 481 -3 875 -7 874 -5 0 -163
-80 -353 -178z"/>
</g>
</svg>
